External Loads File
version=1
nRows=30
nColumns=13
Range=5.000000e-03-10 seconds
endheader
time 	forceRightX 	forceRightY 	forceRightZ 	pointRightX 	pointRightY 	pointRightZ 	forceLeftX 	forceLeftY 	forceLeftZ 	pointLeftX 	pointLeftY 	pointLeftZ 		
5.005000 139.137461 688.789125 -0.000000 0.344062 0.186937 -0.133569 -13.029375 -110.165983 -0.000000 0.222335 0.450791 -0.372145
5.010000 164.284587 679.671756 -0.000000 0.335855 0.180607 -0.133718 -25.899389 -121.119610 -0.000000 0.230722 0.457684 -0.372033
5.015000 187.006073 668.806724 -0.000000 0.327336 0.174999 -0.133915 -38.187590 -129.526325 -0.000000 0.239219 0.463986 -0.371271
5.020000 207.373667 655.923918 -0.000000 0.318735 0.169904 -0.134098 -49.611071 -135.083696 -0.000000 0.247954 0.469732 -0.370855
5.025000 225.496813 640.682396 -0.000000 0.309960 0.165346 -0.134229 -59.997511 -137.624433 -0.000000 0.256894 0.474905 -0.370463
5.030000 240.490099 623.109085 -0.000000 0.301165 0.161393 -0.134494 -69.033578 -137.260601 -0.000000 0.265791 0.479356 -0.370260
5.035000 253.273270 602.633164 -0.000000 0.292327 0.157954 -0.134739 -76.882256 -134.146943 -0.000000 0.275068 0.483232 -0.369995
5.040000 262.433777 579.686559 -0.000000 0.283708 0.155131 -0.135226 -83.295499 -128.887904 -0.000000 0.284270 0.486347 -0.369976
5.045000 270.108870 553.267692 -0.000000 0.274463 0.152916 -0.135233 -88.889656 -121.699436 -0.000000 0.293745 0.488646 -0.369961
5.050000 273.731506 524.659784 -0.000000 0.265687 0.151203 -0.135565 -93.280445 -113.498221 -0.000000 0.303089 0.490440 -0.370038
5.055000 274.264502 493.633674 -0.000000 0.257059 0.150375 -0.136024 -96.866119 -104.628338 -0.000000 0.312412 0.491580 -0.370024
5.060000 272.097633 460.235108 -0.000000 0.248269 0.149970 -0.136305 -99.883548 -95.381437 -0.000000 0.321621 0.491887 -0.370113
5.065000 266.751486 425.053450 -0.000000 0.239741 0.150315 -0.136637 -102.397901 -86.108990 -0.000000 0.330646 0.491460 -0.370516
5.070000 258.015671 388.646279 -0.000000 0.231502 0.151208 -0.137081 -104.610722 -77.014556 -0.000000 0.339273 0.490563 -0.370849
5.075000 246.171734 351.409899 -0.000000 0.223638 0.152647 -0.137466 -106.913591 -68.023272 -0.000000 0.347504 0.488914 -0.371169
5.080000 231.661060 313.822029 -0.000000 0.216040 0.154658 -0.137884 -109.786233 -58.786025 -0.000000 0.355340 0.486631 -0.371312
5.085000 214.912338 276.589562 -0.000000 0.208931 0.157218 -0.138257 -113.709239 -48.745963 -0.000000 0.362868 0.483544 -0.371647
5.090000 196.365825 240.599601 -0.000000 0.202246 0.160139 -0.138659 -119.114565 -37.247057 -0.000000 0.369800 0.479731 -0.372199
5.095000 177.126901 206.246748 -0.000000 0.195737 0.163701 -0.138988 -126.448258 -23.289354 -0.000000 0.376441 0.475407 -0.372847
5.100000 157.671998 174.330922 -0.000000 0.189552 0.167703 -0.139250 -135.942816 -6.153779 -0.000000 0.382561 0.470410 -0.373243
5.105000 138.603201 145.391863 -0.000000 0.183790 0.172117 -0.139548 -147.776680 14.853279 -0.000000 0.388209 0.464928 -0.373275
5.110000 120.603037 119.639139 -0.000000 0.178202 0.177071 -0.139839 -162.045308 40.436638 -0.000000 0.393458 0.459014 -0.373302
5.115000 103.952825 97.316433 -0.000000 0.173006 0.182385 -0.140252 -178.820664 70.792271 -0.000000 0.398174 0.452447 -0.373122
5.120000 88.886582 78.316818 -0.000000 0.167996 0.188173 -0.140649 -198.110567 105.943039 -0.000000 0.402409 0.445442 -0.372933
5.125000 75.339367 62.486815 -0.000000 0.163431 0.194360 -0.141216 -219.997019 145.327755 -0.000000 0.406113 0.437938 -0.372762
5.130000 63.192094 49.497423 -0.000000 0.159314 0.200855 -0.141920 -244.432376 188.257049 -0.000000 0.409510 0.429886 -0.372583
5.135000 52.257494 39.033014 -0.000000 0.155549 0.207976 -0.142257 -271.159702 233.924382 -0.000000 0.412538 0.421343 -0.372289
5.140000 42.324955 30.916942 -0.000000 0.152291 0.215327 -0.142297 -300.032730 281.105589 -0.000000 0.415411 0.412276 -0.371843
5.145000 33.287895 24.988253 -0.000000 0.149527 0.223049 -0.142221 -330.736554 328.676048 -0.000000 0.417718 0.402678 -0.371818
5.150000 25.073772 21.091562 -0.000000 0.147379 0.230915 -0.142168 -362.788612 375.727671 -0.000000 0.419808 0.392615 -0.371830
